<?xml version="1.0" encoding="UTF-8" standalone="no"?>
<svg
   xmlns:dc="http://purl.org/dc/elements/1.1/"
   xmlns:cc="http://creativecommons.org/ns#"
   xmlns:rdf="http://www.w3.org/1999/02/22-rdf-syntax-ns#"
   xmlns:svg="http://www.w3.org/2000/svg"
   xmlns="http://www.w3.org/2000/svg"
   version="1.1"
   id="svg2"
   height="495"
   width="43">
  <metadata
     id="metadata1010">
    <rdf:RDF>
      <cc:Work
         rdf:about="">
        <dc:format>image/svg+xml</dc:format>
        <dc:type
           rdf:resource="http://purl.org/dc/dcmitype/StillImage" />
        <dc:title></dc:title>
      </cc:Work>
    </rdf:RDF>
  </metadata>
  <defs
     id="defs1008" />
  <linearGradient
     gradientTransform="translate(0,-734)"
     y2="155.5"
     x2="1500"
     y1="850.5"
     x1="1500"
     gradientUnits="userSpaceOnUse"
     id="g_b">
    <stop
       id="stop330"
       stop-opacity="0"
       stop-color="#fff"
       offset="0" />
    <stop
       id="stop332"
       stop-color="#fff"
       offset=".25" />
    <stop
       id="stop334"
       stop-color="#fff"
       offset=".5" />
    <stop
       id="stop336"
       stop-color="#fff"
       offset=".75" />
    <stop
       id="stop338"
       stop-opacity="0"
       stop-color="#fff"
       offset="1" />
  </linearGradient>
  <rect
     style="display:none;fill:url(#g_b)"
     display="none"
     height="695"
     width="365"
     y="-578.5"
     x="1317.5"
     id="Menu-3 gradient" />
  <g
     transform="translate(-1267,-255.5)"
     id="3rd_indicator">
    <g
       id="g475">
      <rect
         style="fill:#fff"
         id="rect488"
         height="495"
         width="2"
         y="255.5"
         x="1308" />
    </g>
    <path
       style="fill:#fbfbfb"
       id="path490"
       d="m 1309,524 -42,-21 42,-21 0,42 z m -11.5,-26.25 c -2.9,0 -5.25,2.35 -5.25,5.25 0,2.9 2.35,5.25 5.25,5.25 2.9,0 5.25,-2.35 5.25,-5.25 0,-2.9 -2.35,-5.25 -5.25,-5.25 z" />
  </g>
  <g
     transform="translate(0,-734)"
     style="display:none;fill:#4d4d4d"
     display="none"
     id="1st">
    <circle
       id="circle581"
       r="68"
       cy="1161"
       cx="789" />
    <circle
       id="circle583"
       r="68"
       cy="996.25"
       cx="789" />
    <circle
       id="circle585"
       r="68"
       cy="831.5"
       cx="789" />
    <circle
       id="circle587"
       r="68"
       cy="666.75"
       cx="789" />
    <circle
       id="circle589"
       r="68"
       cy="502"
       cx="789" />
  </g>
</svg>
